<svg aria-hidden="true" style="width:0;height:0;position:absolute;overflow:hidden" xmlns="http://www.w3.org/2000/svg"><defs><symbol id="icon-slash" viewBox="0 0 19 32"><path fill="#8c8c8c" style="fill:var(--color1,#8c8c8c)" d="M17.357 1.501 6.727 31.143H3.181l10.65-29.638h3.526z"/></symbol><symbol id="icon-search-2" viewBox="0 0 32 32"><path fill="none" stroke="#fff" style="stroke:var(--color2,#fff)" stroke-linejoin="round" stroke-linecap="round" stroke-width="2.667" d="M14.667 25.333c5.891 0 10.667-4.776 10.667-10.667S20.558 3.999 14.667 3.999v0C8.776 3.999 4 8.775 4 14.666s4.776 10.667 10.667 10.667v0zM28 28l-5.8-5.8"/></symbol><symbol id="icon-film" viewBox="0 0 32 32"><path fill="none" stroke="#fff" style="stroke:var(--color3,#fff)" stroke-linejoin="round" stroke-linecap="round" stroke-width="2.667" d="M26.427 2.667H5.574a2.907 2.907 0 0 0-2.907 2.907v20.853a2.907 2.907 0 0 0 2.907 2.907v0h20.853a2.907 2.907 0 0 0 2.907-2.907v0V5.574a2.907 2.907 0 0 0-2.907-2.907v0zm-17.094 0v26.667M22.667 2.667v26.667M2.667 16h26.667M2.667 9.333h6.667M2.667 22.667h6.667m13.333 0h6.667M22.667 9.333h6.667"/></symbol><symbol id="icon-scroll-up" viewBox="0 0 32 32"><path style="fill:)" d="M17.346 8.581A2.01 2.01 0 0 0 15.929 8c-.532 0-1.041.209-1.417.581l-5.933 6c-.783.775-.783 2.031 0 2.806s2.051.776 2.833 0L14 14.754v7.266A1.98 1.98 0 0 0 15.98 24h.04A1.98 1.98 0 0 0 18 22.02v-6.963l.26.042 2.249 2.228c.709.702 1.844.873 2.656.293a1.973 1.973 0 0 0 .255-3.022l-6.074-6.017zM16 0C7.164 0 0 7.163 0 16s7.164 16 16 16c8.837 0 16-7.163 16-16S24.837 0 16 0zm0 28C9.383 28 4 22.617 4 16S9.383 4 16 4s12 5.383 12 12-5.383 12-12 12z"/></symbol><symbol aria-hidden="true" style="width:0;height:0;position:absolute" xmlns="http://www.w3.org/2000/svg" overflow="hidden" id="moon" viewBox="0 0 32 32"><path fill="currentColor" d="M17.701 32a15.97 15.97 0 0 0 12.429-5.925c.442-.544-.04-1.339-.723-1.209-7.763 1.478-14.891-4.474-14.891-12.31 0-4.514 2.416-8.665 6.344-10.9.605-.345.453-1.262-.235-1.389-.879-.17-1.89-.267-2.923-.268-8.832 0-16 7.157-16 16 0 8.832 7.157 16 16 16z"/></symbol></defs><defs><symbol id="icon-slash" viewBox="0 0 19 32"><path fill="#8c8c8c" style="fill:var(--color1,#8c8c8c)" d="M17.357 1.501 6.727 31.143H3.181l10.65-29.638h3.526z"/></symbol><symbol id="icon-search-2" viewBox="0 0 32 32"><path fill="none" stroke="#fff" style="stroke:var(--color2,#fff)" stroke-linejoin="round" stroke-linecap="round" stroke-width="2.667" d="M14.667 25.333c5.891 0 10.667-4.776 10.667-10.667S20.558 3.999 14.667 3.999v0C8.776 3.999 4 8.775 4 14.666s4.776 10.667 10.667 10.667v0zM28 28l-5.8-5.8"/></symbol><symbol id="icon-film" viewBox="0 0 32 32"><path fill="none" stroke="#fff" style="stroke:var(--color3,#fff)" stroke-linejoin="round" stroke-linecap="round" stroke-width="2.667" d="M26.427 2.667H5.574a2.907 2.907 0 0 0-2.907 2.907v20.853a2.907 2.907 0 0 0 2.907 2.907v0h20.853a2.907 2.907 0 0 0 2.907-2.907v0V5.574a2.907 2.907 0 0 0-2.907-2.907v0zm-17.094 0v26.667M22.667 2.667v26.667M2.667 16h26.667M2.667 9.333h6.667M2.667 22.667h6.667m13.333 0h6.667M22.667 9.333h6.667"/></symbol><symbol id="icon-closed" viewBox="0 0 32 32"><path d="M6.613 25.546H28.41a.831.831 0 0 0 .194-.024l.014.001a.844.844 0 0 0 .843-.843V.845a.843.843 0 0 0-.843-.843H6.614a4.075 4.075 0 0 0-4.071 4.07c0 .03.006.059.009.088-.003 2.073-.029 21.121-.003 23.625-.002.049-.008.097-.008.146a4.074 4.074 0 0 0 3.815 4.058.783.783 0 0 0 .129.013h22.132a.844.844 0 0 0 .843-.843v-3.174a.844.844 0 0 0-1.686 0v2.331H6.612a2.384 2.384 0 0 1-2.379-2.286c.001-.023.005-.044.005-.067a13.836 13.836 0 0 1-.003-.171 2.385 2.385 0 0 1 2.377-2.243zM7.188 4.07a.843.843 0 0 1 1.686 0V21.2a.844.844 0 0 1-1.686 0V4.07z"/></symbol><symbol id="icon-open" viewBox="0 0 32 32"><path d="M30.935 4.826c-.449 0-.87.004-1.292.015V3.409h-.47c-9.128 0-12.188 2.183-13.174 3.361-.987-1.178-4.047-3.361-13.174-3.361h-.47v1.432a45.047 45.047 0 0 0-1.29-.015H0V25.53h1.065c11.261 0 13.559 2.582 13.887 3.062h2.113c.356-.502 2.7-3.062 13.871-3.062H32V4.826h-1.065zm-15.64 19.77c-1.572-1.16-4.871-2.505-11.765-2.595V4.592c9.656.124 11.521 2.769 11.765 3.2v16.804zm13.175-2.595c-6.894.09-10.193 1.434-11.765 2.595V7.798c.266-.472 2.184-3.081 11.765-3.204v17.408z"/></symbol></defs></svg>