<svg height="512" width="512" xml:space="preserve" xmlns="http://www.w3.org/2000/svg"><g clip-rule="evenodd" fill-rule="evenodd"><path d="M12.263 135.272c8.178-20.843 22.264-31.261 43.158-40.321C75.868 85.891 165.815 80.452 256.216 80c90.416.452 179.907 5.891 200.348 14.951 20.91 9.06 34.98 19.478 43.165 40.321C507.899 155.655 512 205.94 512 256.234c0 50.27-4.101 100.104-12.271 120.501-8.185 20.836-22.255 31.246-43.165 40.767-20.44 9.067-109.932 14.046-200.348 14.498-90.401-.452-180.348-5.431-200.795-14.498-20.894-9.521-34.98-19.931-43.158-40.767C4.085 356.338 0 306.504 0 256.234c0-50.294 4.085-100.579 12.263-120.962z" fill="#ff6b01"/><path fill="#FFF" d="M192.164 144.332v207.48l176.724-95.578z"/><path fill="#D8D9D9" d="m192.164 160.188 176.724 96.046-176.724-111.902z"/></g></svg>