<svg aria-hidden="true" style="position: absolute; width: 0; height: 0; overflow: hidden;" version="1.1" xmlns="http://www.w3.org/2000/svg" xmlns:xlink="http://www.w3.org/1999/xlink">
	<defs>
		<symbol id="icon-slash" viewBox="0 0 19 32">
			<path fill="#8c8c8c" style="fill: var(--color1, #8c8c8c)" d="M17.357 1.501l-10.63 29.642h-3.546l10.65-29.638h3.526z">
			</path>
		</symbol>
		<symbol id="icon-search-2" viewBox="0 0 32 32">
			<path fill="none" stroke="#fff" style="stroke: var(--color2, #fff)" stroke-linejoin="round" stroke-linecap="round" stroke-miterlimit="4" stroke-width="2.6667" d="M14.667 25.333c5.891 0 10.667-4.776 10.667-10.667s-4.776-10.667-10.667-10.667v0c-5.891 0-10.667 4.776-10.667 10.667s4.776 10.667 10.667 10.667v0zM28 28l-5.8-5.8">
			</path>
		</symbol>
		<symbol id="icon-film" viewBox="0 0 32 32">
			<path fill="none" stroke="#fff" style="stroke: var(--color3, #fff)" stroke-linejoin="round" stroke-linecap="round" stroke-miterlimit="4" stroke-width="2.6667" d="M26.427 2.667h-20.853c-1.605 0-2.907 1.301-2.907 2.907v0 20.853c0 1.605 1.301 2.907 2.907 2.907v0h20.853c1.605 0 2.907-1.301 2.907-2.907v0-20.853c0-1.605-1.301-2.907-2.907-2.907v0zM9.333 2.667v26.667M22.667 2.667v26.667M2.667 16h26.667M2.667 9.333h6.667M2.667 22.667h6.667M22.667 22.667h6.667M22.667 9.333h6.667">
			</path>
		</symbol>
		<symbol id="icon-scroll-up" viewBox="0 0 32 32">
			<path fill="" style="fill:)" d="M17.346 8.581c-0.375-0.372-0.884-0.581-1.417-0.581-0.532 0-1.041 0.209-1.417 0.581l-5.933 6c-0.783 0.775-0.783 2.031 0 2.806s2.051 0.776 2.833 0l2.588-2.633v7.266c0 1.094 0.887 1.98 1.98 1.98h0.040c1.094 0 1.98-0.886 1.98-1.98v-6.963l0.26 0.042 2.249 2.228c0.709 0.702 1.844 0.873 2.656 0.293 1.031-0.737 1.116-2.169 0.255-3.022l-6.074-6.017zM16 0c-8.836 0-16 7.163-16 16s7.164 16 16 16c8.837 0 16-7.163 16-16s-7.163-16-16-16zM16 28c-6.617 0-12-5.383-12-12s5.383-12 12-12 12 5.383 12 12-5.383 12-12 12z">
			</path>
		</symbol>
		 <symbol aria-hidden="true" style="position:absolute; width:0; height:0" xmlns="http://www.w3.org/2000/svg" overflow="hidden" id="moon" viewBox="0 0 32 32">
    <path fill="currentColor" d="M17.701 32a15.97 15.97 0 0012.429-5.925c.442-.544-.04-1.339-.723-1.209-7.763 1.478-14.891-4.474-14.891-12.31 0-4.514 2.416-8.665 6.344-10.9.605-.345.453-1.262-.235-1.389-.879-.17-1.89-.267-2.923-.268-8.832 0-16 7.157-16 16 0 8.832 7.157 16 16 16z"/>
  </symbol>
	</defs>
</svg>
